<svg width="24" height="24" viewBox="0 0 24 24" fill="none" xmlns="http://www.w3.org/2000/svg">
<path d="M9.55379 2.00702L10.4217 2.9683C11.3731 4.02173 12.9172 4.01916 13.8657 2.9683L14.6799 2.06659C15.6666 2.33258 16.6079 2.74472 17.4725 3.2893L17.4138 4.43788C17.3414 5.85559 18.4355 6.94545 19.8489 6.87345L20.8882 6.8203C21.4235 7.73711 21.813 8.73155 22.0428 9.76802L21.3185 10.4216C20.2655 11.373 20.2685 12.9172 21.3185 13.8656L21.9875 14.469C21.7266 15.5265 21.2986 16.5356 20.7198 17.4583L19.8489 17.4137C18.4317 17.3413 17.3418 18.4354 17.4138 19.8489L17.4584 20.7197C16.5357 21.2986 15.5266 21.7265 14.4691 21.9874L13.8657 21.3189C12.9142 20.2654 11.3701 20.268 10.4217 21.3189L9.76808 22.0432C8.73159 21.8133 7.73714 21.4236 6.82037 20.8882L6.87351 19.8489C6.94594 18.4316 5.85179 17.3417 4.43837 17.4137L3.28979 17.4724C2.74502 16.6077 2.33274 15.6663 2.06665 14.6794L2.96837 13.8652C4.02179 12.9146 4.01922 11.37 2.96837 10.4216L2.00708 9.55373C2.24285 8.5886 2.61777 7.66291 3.12008 6.80573L4.43837 6.87302C5.85565 6.94545 6.94551 5.8513 6.87351 4.43788L6.80579 3.12002C7.6627 2.61779 8.5881 2.24286 9.55294 2.00702M8.88265 3.62145C8.72944 3.67845 8.57782 3.73962 8.42794 3.80488L8.43908 4.02473C8.56851 6.55673 6.55894 8.56845 4.02479 8.43902L3.80494 8.42788C3.73979 8.57788 3.67865 8.7293 3.62151 8.88216L3.78137 9.02702C5.66322 10.7259 5.66494 13.569 3.78137 15.2696L3.70765 15.3364C3.77908 15.5139 3.85622 15.6889 3.93908 15.8614L4.02479 15.8572C6.53194 15.729 8.52951 17.6987 8.44251 20.1986C8.65394 20.2903 8.86894 20.3737 9.08751 20.4489C10.7469 18.6823 13.4401 18.654 15.1321 20.3692C15.3764 20.2777 15.6162 20.1756 15.8517 20.0627C15.8397 17.6992 17.6975 15.8396 20.0628 15.8516C20.1754 15.6162 20.2775 15.3762 20.3692 15.1316C18.6554 13.4413 18.6807 10.7482 20.4489 9.08745C20.3741 8.86888 20.2905 8.65388 20.1982 8.44245C17.7408 8.52816 15.7921 6.59702 15.8525 4.14388L15.8615 3.93902C15.689 3.85632 15.5139 3.77913 15.3365 3.70759L15.2697 3.7813C13.5708 5.66316 10.7272 5.66488 9.02708 3.7813L8.88265 3.62145ZM12.0001 8.14288C12.5066 8.14288 13.0082 8.24264 13.4761 8.43648C13.9441 8.63032 14.3693 8.91444 14.7275 9.27261C15.0857 9.63078 15.3698 10.056 15.5636 10.524C15.7575 10.9919 15.8572 11.4935 15.8572 12C15.8572 12.5065 15.7575 13.0081 15.5636 13.4761C15.3698 13.9441 15.0857 14.3693 14.7275 14.7274C14.3693 15.0856 13.9441 15.3697 13.4761 15.5636C13.0082 15.7574 12.5066 15.8572 12.0001 15.8572C10.9771 15.8572 9.99602 15.4508 9.27267 14.7274C8.54931 14.0041 8.14294 13.023 8.14294 12C8.14294 10.977 8.54931 9.99596 9.27267 9.27261C9.99602 8.54925 10.9771 8.14288 12.0001 8.14288ZM12.0001 9.42859C11.6624 9.42859 11.328 9.4951 11.016 9.62433C10.7041 9.75355 10.4206 9.94296 10.1818 10.1817C9.94303 10.4205 9.75362 10.704 9.62439 11.016C9.49516 11.328 9.42865 11.6623 9.42865 12C9.42865 12.3377 9.49516 12.6721 9.62439 12.9841C9.75362 13.296 9.94303 13.5795 10.1818 13.8183C10.4206 14.0571 10.7041 14.2465 11.016 14.3757C11.328 14.5049 11.6624 14.5714 12.0001 14.5714C12.6821 14.5714 13.3361 14.3005 13.8184 13.8183C14.3006 13.3361 14.5715 12.682 14.5715 12C14.5715 11.318 14.3006 10.664 13.8184 10.1817C13.3361 9.69951 12.6821 9.42859 12.0001 9.42859Z" fill="#FCFC30"/>
</svg>
