<svg width="24" height="24" viewBox="0 0 24 24" fill="none" xmlns="http://www.w3.org/2000/svg">
<path fill-rule="evenodd" clip-rule="evenodd" d="M9.76808 22.0427C8.73161 21.813 7.73717 21.4235 6.82037 20.8882L6.87351 19.8489C6.94594 18.4316 5.85179 17.3417 4.43837 17.4137L3.28979 17.4724C2.74502 16.6077 2.33274 15.6663 2.06665 14.6794L2.96837 13.8652C4.02179 12.9146 4.01922 11.37 2.96837 10.4216L2.00708 9.55373C2.24285 8.5886 2.61777 7.66291 3.12008 6.80573L4.43837 6.87302C5.85565 6.94545 6.94551 5.8513 6.87351 4.43788L6.80579 3.12002C7.6627 2.61779 8.5881 2.24286 9.55294 2.00702L10.4212 2.9683C11.3727 4.02173 12.9168 4.01916 13.8652 2.9683L14.6795 2.06659C15.6661 2.33258 16.6074 2.74472 17.4721 3.2893L17.4134 4.43788C17.3409 5.85559 18.4351 6.94545 19.8485 6.87345L20.8878 6.8203C21.4231 7.73711 21.8126 8.73155 22.0424 9.76802L21.3181 10.4216C20.2651 11.373 20.2681 12.9172 21.3181 13.8656L21.9871 14.469C21.7261 15.5265 21.2982 16.5356 20.7194 17.4583L19.8485 17.4137C18.4312 17.3413 17.3414 18.4354 17.4134 19.8489L17.4579 20.7197C16.5353 21.2986 15.5261 21.7265 14.4687 21.9874L13.8652 21.3189C12.9138 20.2654 11.3697 20.268 10.4212 21.3189L9.76808 22.0427ZM12.0001 16.2857C14.3671 16.2857 16.2858 14.367 16.2858 12C16.2858 9.63302 14.3671 7.7143 12.0001 7.7143C9.63308 7.7143 7.71437 9.63302 7.71437 12C7.71437 14.367 9.63308 16.2857 12.0001 16.2857Z" fill="#FCFC30"/>
</svg>
