<svg width="24" height="24" viewBox="0 0 24 24" fill="none" xmlns="http://www.w3.org/2000/svg">
<path d="M21.4932 8.47499C22.2997 10.6412 22.3407 13.0182 21.6094 15.211C20.8781 17.4038 19.4185 19.2803 17.4732 20.5288C15.5279 21.7773 13.2139 22.3225 10.9158 22.074C8.6177 21.8254 6.47382 20.798 4.84041 19.1625C3.00557 17.3337 1.94152 14.8712 1.86721 12.2817C1.7929 9.69217 2.71398 7.17268 4.44091 5.24168C6.16785 3.31068 8.56925 2.11507 11.151 1.90089C13.7327 1.68672 16.2983 2.47027 18.3198 4.0903L20.2042 2.20499C20.3088 2.10034 20.433 2.01733 20.5698 1.9607C20.7065 1.90406 20.853 1.87491 21.001 1.87491C21.149 1.87491 21.2956 1.90406 21.4323 1.9607C21.569 2.01733 21.6933 2.10034 21.7979 2.20499C21.9026 2.30964 21.9856 2.43387 22.0422 2.5706C22.0988 2.70733 22.128 2.85387 22.128 3.00186C22.128 3.14986 22.0988 3.2964 22.0422 3.43313C21.9856 3.56986 21.9026 3.69409 21.7979 3.79874L12.7979 12.7987C12.6933 12.9034 12.569 12.9864 12.4323 13.043C12.2956 13.0997 12.149 13.1288 12.001 13.1288C11.853 13.1288 11.7065 13.0997 11.5698 13.043C11.433 12.9864 11.3088 12.9034 11.2042 12.7987C11.0995 12.6941 11.0165 12.5699 10.9599 12.4331C10.9032 12.2964 10.8741 12.1499 10.8741 12.0019C10.8741 11.8539 10.9032 11.7073 10.9599 11.5706C11.0165 11.4339 11.0995 11.3096 11.2042 11.205L13.4542 8.95499C12.82 8.65201 12.1071 8.55457 11.4149 8.67624C10.7227 8.79791 10.0858 9.13264 9.59297 9.63372C9.10016 10.1348 8.77607 10.7772 8.66592 11.4713C8.55577 12.1654 8.66506 12.8766 8.97854 13.5057C9.29202 14.1347 9.79405 14.6501 10.4146 14.9801C11.0351 15.3101 11.7431 15.4382 12.4399 15.3464C13.1367 15.2546 13.7875 14.9476 14.3014 14.4682C14.8153 13.9888 15.1667 13.3609 15.3067 12.6722C15.3656 12.3797 15.5383 12.1225 15.7868 11.9573C16.0353 11.7922 16.3393 11.7325 16.6318 11.7914C16.9243 11.8503 17.1815 12.023 17.3467 12.2716C17.5118 12.5201 17.5715 12.824 17.5126 13.1166C17.273 14.297 16.6607 15.3694 15.7659 16.1758C14.8712 16.9823 13.7412 17.4802 12.5423 17.5963C11.3433 17.7124 10.1388 17.4406 9.10589 16.8208C8.07301 16.2011 7.26636 15.2661 6.80466 14.1536C6.34295 13.041 6.25057 11.8096 6.54113 10.6407C6.83168 9.47168 7.48981 8.42685 8.41866 7.65993C9.34751 6.89301 10.498 6.44451 11.7009 6.38045C12.9037 6.31638 14.0953 6.64013 15.1004 7.30405L16.7157 5.69436C15.1984 4.56116 13.3235 4.01271 11.4346 4.14952C9.54578 4.28633 7.76949 5.09923 6.43128 6.43926C5.09307 7.77928 4.28258 9.55668 4.14833 11.4457C4.01408 13.3347 4.56508 15.2089 5.70034 16.7247C6.83559 18.2405 8.47908 19.2964 10.3296 19.699C12.1801 20.1015 14.1137 19.8237 15.7761 18.9165C17.4384 18.0093 18.7182 16.5334 19.3808 14.7593C20.0434 12.9852 20.0445 11.0317 19.3838 9.25686C19.3313 9.1181 19.3066 8.97031 19.3114 8.822C19.3162 8.67368 19.3502 8.52778 19.4116 8.39268C19.473 8.25759 19.5606 8.13598 19.6692 8.03485C19.7778 7.93373 19.9053 7.85509 20.0444 7.80346C20.1835 7.75183 20.3315 7.72823 20.4798 7.73403C20.628 7.73982 20.7737 7.7749 20.9084 7.83723C21.043 7.89956 21.164 7.98792 21.2644 8.09721C21.3648 8.20651 21.4426 8.33458 21.4932 8.47405V8.47499Z" fill="#FCFC30"/>
</svg>
