<svg width="28" height="28" viewBox="0 0 28 28" fill="none" xmlns="http://www.w3.org/2000/svg">
<ellipse cx="13.7689" cy="14.1162" rx="13.7689" ry="13.7412" fill="#002A5E"/>
<ellipse cx="13.7689" cy="14.1163" rx="11.0276" ry="11.0055" fill="url(#paint0_radial_1000_73)"/>
<path d="M11.7159 18.0918L9.26595 15.0398L6.53595 18.2738H6.31195L8.62195 14.2278L5.79395 10.6998L8.00595 10.0978L9.64395 12.4358L10.8619 10.2938H13.2419L10.4699 13.6118L13.6199 18.0918H11.7159ZM14.8645 21.0598L14.3885 10.2938H16.8385L16.7965 11.3158C17.1699 10.9985 17.6132 10.7185 18.1265 10.4758C18.6399 10.2331 19.1392 10.1118 19.6245 10.1118C20.5112 10.1118 21.1692 10.3871 21.5985 10.9378C22.0372 11.4791 22.2565 12.2491 22.2565 13.2478C22.2565 14.2278 22.0232 15.0678 21.5565 15.7678C21.0899 16.4585 20.4272 17.0045 19.5685 17.4058C18.7099 17.8071 17.6972 18.0685 16.5305 18.1898L16.4185 21.0598H14.8645ZM16.5585 17.5738C17.4825 17.2565 18.2059 16.8785 18.7285 16.4398C19.2512 16.0011 19.6199 15.5205 19.8345 14.9978C20.0492 14.4751 20.1565 13.9291 20.1565 13.3598C20.1565 12.7251 20.0492 12.2678 19.8345 11.9878C19.6199 11.7078 19.3072 11.5678 18.8965 11.5678C18.5232 11.5678 18.1685 11.5958 17.8325 11.6518C17.5059 11.7078 17.1512 11.8105 16.7685 11.9598L16.5585 17.5738Z" fill="white" fill-opacity="0.79"/>
<defs>
<radialGradient id="paint0_radial_1000_73" cx="0" cy="0" r="1" gradientUnits="userSpaceOnUse" gradientTransform="translate(13.7689 14.1163) rotate(-153.984) scale(28.938 28.9023)">
<stop offset="0.292218" stop-color="#002A5E"/>
<stop offset="1" stop-color="#E0EAFF"/>
</radialGradient>
</defs>
</svg>
